<svg width="521" height="521" viewBox="0 0 521 521" fill="none" xmlns="http://www.w3.org/2000/svg">
<rect x="4" y="4" width="513" height="513" rx="256.5" fill="white" stroke="#363636" stroke-width="7"/>
<path d="M297 152L270.5 197.899L217.5 197.899L191 152L217.5 106.101L270.5 106.101L297 152Z" stroke="#363636" stroke-width="7" stroke-linejoin="round"/>
<path d="M297 152L270.5 197.899L217.5 197.899L191 152L217.5 106.101L270.5 106.101L297 152Z" stroke="#363636" stroke-width="7" stroke-linejoin="round"/>
<path d="M297 244L270.5 289.899L217.5 289.899L191 244L217.5 198.101L270.5 198.101L297 244Z" stroke="#363636" stroke-width="7" stroke-linejoin="round"/>
<path d="M376 198L349.5 243.899L296.5 243.899L270 198L296.5 152.101L349.5 152.101L376 198Z" stroke="#363636" stroke-width="7" stroke-linejoin="round"/>
<path d="M455 289L428.5 334.899L375.5 334.899L349 289L375.5 243.101L428.5 243.101L455 289Z" fill="#FFBD59" stroke="#FFBD59" stroke-width="7" stroke-linejoin="round"/>
<path d="M171 319L144.5 364.899L91.5001 364.899L65.0001 319L91.5001 273.101L144.5 273.101L171 319Z" fill="#FFBD59" stroke="#FFBD59" stroke-width="7" stroke-linejoin="round"/>
<path d="M377 381L350.5 426.899L297.5 426.899L271 381L297.5 335.101L350.5 335.101L377 381Z" stroke="#363636" stroke-width="7" stroke-linejoin="round"/>
<path d="M218 198L191.5 243.899L138.5 243.899L112 198L138.5 152.101L191.5 152.101L218 198Z" stroke="#363636" stroke-width="7" stroke-linejoin="round"/>
<path d="M297 336L270.5 381.899L217.5 381.899L191 336L217.5 290.101L270.5 290.101L297 336Z" stroke="#363636" stroke-width="7" stroke-linejoin="round"/>
<circle cx="166.5" cy="421.5" r="17.5" stroke="#363636" stroke-width="7"/>
<circle cx="406.5" cy="111.5" r="30.5" stroke="#363636" stroke-width="7"/>
</svg>
