<svg width="398" height="366" viewBox="0 0 398 366" fill="none" xmlns="http://www.w3.org/2000/svg">
<path d="M236 75L209.5 120.899L156.5 120.899L130 75L156.5 29.1007L209.5 29.1007L236 75Z" stroke="#363636" stroke-width="7" stroke-linejoin="round"/>
<path d="M236 75L209.5 120.899L156.5 120.899L130 75L156.5 29.1007L209.5 29.1007L236 75Z" stroke="#363636" stroke-width="7" stroke-linejoin="round"/>
<path d="M236 167L209.5 212.899L156.5 212.899L130 167L156.5 121.101L209.5 121.101L236 167Z" stroke="#363636" stroke-width="7" stroke-linejoin="round"/>
<path d="M315 121L288.5 166.899L235.5 166.899L209 121L235.5 75.1007L288.5 75.1007L315 121Z" stroke="#363636" stroke-width="7" stroke-linejoin="round"/>
<path d="M394 212L367.5 257.899L314.5 257.899L288 212L314.5 166.101L367.5 166.101L394 212Z" fill="#FFBD59" stroke="#FFBD59" stroke-width="7" stroke-linejoin="round"/>
<path d="M110 242L83.5 287.899L30.5 287.899L4.00001 242L30.5 196.101L83.5 196.101L110 242Z" fill="#FFBD59" stroke="#FFBD59" stroke-width="7" stroke-linejoin="round"/>
<path d="M316 304L289.5 349.899L236.5 349.899L210 304L236.5 258.101L289.5 258.101L316 304Z" stroke="#363636" stroke-width="7" stroke-linejoin="round"/>
<path d="M157 121L130.5 166.899L77.5 166.899L51 121L77.5 75.1007L130.5 75.1007L157 121Z" stroke="#363636" stroke-width="7" stroke-linejoin="round"/>
<path d="M236 259L209.5 304.899L156.5 304.899L130 259L156.5 213.101L209.5 213.101L236 259Z" stroke="#363636" stroke-width="7" stroke-linejoin="round"/>
<circle cx="105.5" cy="344.5" r="17.5" stroke="#363636" stroke-width="7"/>
<circle cx="345.5" cy="34.5" r="30.5" stroke="#363636" stroke-width="7"/>
</svg>
