<svg width="431" height="431" viewBox="0 0 431 431" fill="none" xmlns="http://www.w3.org/2000/svg">
<rect width="431" height="431" fill="white"/>
<path d="M252 101L225.5 146.899L172.5 146.899L146 101L172.5 55.1007L225.5 55.1007L252 101Z" stroke="#363636" stroke-width="7" stroke-linejoin="round"/>
<path d="M252 101L225.5 146.899L172.5 146.899L146 101L172.5 55.1007L225.5 55.1007L252 101Z" stroke="#363636" stroke-width="7" stroke-linejoin="round"/>
<path d="M252 193L225.5 238.899L172.5 238.899L146 193L172.5 147.101L225.5 147.101L252 193Z" stroke="#363636" stroke-width="7" stroke-linejoin="round"/>
<path d="M331 147L304.5 192.899L251.5 192.899L225 147L251.5 101.101L304.5 101.101L331 147Z" stroke="#363636" stroke-width="7" stroke-linejoin="round"/>
<path d="M410 238L383.5 283.899L330.5 283.899L304 238L330.5 192.101L383.5 192.101L410 238Z" fill="#FFBD59" stroke="#FFBD59" stroke-width="7" stroke-linejoin="round"/>
<path d="M126 268L99.5 313.899L46.5 313.899L20 268L46.5 222.101L99.5 222.101L126 268Z" fill="#FFBD59" stroke="#FFBD59" stroke-width="7" stroke-linejoin="round"/>
<path d="M332 330L305.5 375.899L252.5 375.899L226 330L252.5 284.101L305.5 284.101L332 330Z" stroke="#363636" stroke-width="7" stroke-linejoin="round"/>
<path d="M173 147L146.5 192.899L93.5 192.899L67 147L93.5 101.101L146.5 101.101L173 147Z" stroke="#363636" stroke-width="7" stroke-linejoin="round"/>
<path d="M252 285L225.5 330.899L172.5 330.899L146 285L172.5 239.101L225.5 239.101L252 285Z" stroke="#363636" stroke-width="7" stroke-linejoin="round"/>
<circle cx="121.5" cy="370.5" r="17.5" stroke="#363636" stroke-width="7"/>
<circle cx="361.5" cy="60.5" r="30.5" stroke="#363636" stroke-width="7"/>
</svg>
